<?xml version="1.0" standalone="no"?>
<!DOCTYPE svg PUBLIC "-//W3C//DTD SVG 20010904//EN"
 "http://www.w3.org/TR/2001/REC-SVG-20010904/DTD/svg10.dtd">
<svg version="1.0" xmlns="http://www.w3.org/2000/svg"
 width="2132.000000pt" height="2132.000000pt" viewBox="0 0 2132.000000 2132.000000"
 preserveAspectRatio="xMidYMid meet">
<metadata>
Created by potrace 1.14, written by Peter Selinger 2001-2017
</metadata>
<g transform="translate(0.000000,2132.000000) scale(0.100000,-0.100000)"
fill="#000000" stroke="none">
<path d="M2540 12731 l0 -8589 23 -7 c12 -4 25 -7 30 -6 4 1 7 -4 7 -9 0 -6 7
-10 15 -10 8 0 15 -4 15 -10 0 -5 9 -10 20 -10 11 0 20 -5 20 -12 0 -6 3 -8 7
-5 3 4 15 -1 26 -10 14 -12 18 -13 12 -3 -5 8 4 5 19 -8 16 -12 35 -22 42 -22
8 0 14 -4 14 -9 0 -8 27 -19 41 -17 4 1 16 -8 28 -18 12 -11 21 -15 21 -10 0
5 4 4 8 -2 9 -13 111 -64 130 -64 7 0 10 -4 7 -10 -3 -5 1 -10 9 -10 9 0 30
-9 48 -19 17 -11 35 -18 40 -15 4 3 8 1 8 -5 0 -5 14 -16 30 -25 20 -9 28 -10
24 -3 -3 7 2 3 10 -7 9 -11 16 -16 16 -12 0 4 7 1 15 -8 9 -8 23 -12 32 -9 10
4 14 2 10 -4 -6 -10 1 -14 38 -22 6 -1 17 -8 25 -15 8 -7 30 -19 48 -27 17 -8
32 -18 32 -23 0 -4 6 -6 14 -3 8 3 19 0 25 -7 5 -6 26 -18 46 -26 19 -7 35
-17 35 -22 0 -4 8 -8 17 -8 9 0 25 -8 36 -18 15 -12 19 -13 13 -2 -4 8 -1 7 7
-3 8 -10 24 -19 36 -20 12 -1 21 -4 21 -8 0 -8 72 -44 83 -41 4 1 7 -2 7 -7 0
-7 28 -19 47 -19 3 0 9 -5 12 -10 3 -6 13 -12 21 -14 8 -2 21 -9 28 -16 8 -7
18 -10 23 -7 5 4 9 1 9 -4 0 -6 7 -11 15 -11 8 0 15 -5 15 -11 0 -6 7 -9 15
-5 8 3 15 1 15 -5 0 -6 4 -8 9 -5 5 4 11 2 13 -2 4 -11 159 -92 175 -92 6 0
13 -3 15 -7 4 -11 100 -59 110 -56 4 2 8 -2 8 -8 0 -5 4 -7 10 -4 5 3 10 2 10
-4 0 -6 11 -13 25 -17 14 -3 25 -11 25 -16 0 -5 6 -8 12 -5 7 2 19 -3 26 -12
11 -13 12 -13 6 -1 -6 12 -4 12 12 -1 21 -18 142 -81 147 -77 2 2 11 -3 20
-10 25 -21 167 -92 167 -84 0 4 4 3 8 -3 9 -13 72 -48 72 -40 0 3 10 -3 22
-15 12 -11 30 -20 40 -20 10 0 18 -5 18 -11 0 -6 7 -9 15 -5 8 3 15 2 15 -2 0
-9 71 -47 83 -44 4 1 7 -2 7 -7 0 -8 37 -24 52 -22 5 1 8 -4 8 -10 0 -5 4 -7
10 -4 5 3 10 2 10 -3 0 -9 94 -55 106 -52 4 1 10 -2 13 -7 3 -5 28 -20 56 -33
27 -14 56 -31 63 -38 17 -16 25 -16 17 1 -4 6 0 5 7 -3 18 -20 54 -40 72 -40
8 0 16 -4 18 -9 2 -5 10 -11 18 -13 8 -2 17 -6 20 -9 7 -8 98 -51 105 -49 3 0
13 -6 21 -15 9 -8 20 -13 25 -10 5 4 9 2 9 -3 0 -7 84 -50 107 -55 4 -1 15 -7
23 -14 8 -7 18 -12 21 -11 3 2 12 -2 20 -9 26 -22 207 -111 213 -106 3 4 6 1
6 -5 0 -7 7 -12 15 -12 8 0 15 -4 15 -10 0 -5 9 -10 20 -10 11 0 20 -4 20 -10
0 -5 3 -9 8 -8 4 1 22 -6 40 -15 17 -10 32 -15 32 -12 0 3 10 -3 22 -15 12
-11 30 -20 39 -20 10 0 19 -3 21 -8 4 -9 214 -115 224 -112 4 1 10 -2 13 -7
10 -13 50 -33 68 -33 9 0 13 -3 10 -7 -8 -8 42 -35 53 -28 4 3 10 -2 14 -10 3
-8 14 -15 25 -15 11 0 21 -3 23 -7 4 -10 141 -78 150 -75 5 1 8 -3 8 -8 0 -6
7 -10 15 -10 8 0 15 -4 15 -10 0 -5 8 -10 18 -10 9 0 26 -7 36 -15 10 -8 23
-12 27 -9 5 3 9 0 9 -5 0 -6 7 -11 15 -11 8 0 15 -4 15 -10 0 -5 9 -10 20 -10
11 0 20 -5 20 -11 0 -6 7 -9 15 -5 8 3 15 2 15 -2 0 -9 71 -49 78 -44 3 2 8 0
11 -5 10 -14 71 -45 71 -36 0 4 4 4 8 -2 12 -17 89 -55 96 -48 3 3 6 1 6 -5 0
-9 39 -28 48 -23 1 1 12 -8 24 -19 12 -11 33 -20 47 -20 13 0 22 -3 19 -6 -4
-3 62 -40 145 -82 84 -42 155 -81 158 -85 3 -5 8 -7 10 -6 5 4 103 -44 110
-54 3 -5 12 -9 20 -10 8 -2 19 -5 24 -9 44 -27 88 -48 99 -48 8 0 16 -3 18 -7
2 -5 35 -24 73 -43 39 -19 73 -39 76 -44 4 -5 12 -5 18 -2 6 4 11 3 11 -3 0
-5 10 -13 23 -17 12 -4 24 -9 27 -13 7 -9 218 -112 226 -111 4 1 10 -3 13 -8
3 -5 38 -24 76 -42 39 -18 78 -40 88 -48 9 -8 17 -12 17 -9 0 4 15 -2 33 -12
70 -41 356 -184 363 -182 4 2 10 -2 13 -7 3 -6 39 -26 78 -45 40 -19 69 -37
66 -41 -4 -3 5 -6 19 -6 15 0 28 -4 30 -8 2 -4 35 -23 73 -42 39 -19 73 -38
76 -43 3 -5 10 -9 15 -9 15 -1 59 -22 65 -31 3 -5 9 -8 13 -7 3 0 42 -18 86
-40 43 -23 82 -41 86 -40 4 1 10 -2 13 -7 3 -4 38 -24 76 -43 39 -18 72 -38
73 -42 2 -4 10 -8 17 -8 16 0 99 -42 103 -52 2 -5 10 -8 17 -8 8 0 21 -7 29
-16 9 -8 16 -13 16 -10 0 8 103 -45 111 -57 3 -5 8 -8 10 -6 9 5 49 -13 49
-22 0 -6 4 -8 9 -4 5 3 15 -1 23 -8 7 -7 18 -14 23 -15 28 -6 45 -14 45 -23 0
-6 5 -7 10 -4 5 3 10 1 10 -4 0 -6 7 -11 15 -11 9 0 33 -11 55 -25 22 -14 40
-22 40 -19 0 4 9 -1 20 -11 11 -10 20 -14 20 -9 0 5 4 5 8 -1 10 -14 82 -51
114 -59 20 -4 42 1 78 19 27 14 53 26 57 27 5 0 25 12 46 25 20 13 37 20 37
17 0 -4 8 0 18 8 9 9 28 19 42 23 14 4 28 13 32 19 4 6 11 11 15 11 20 2 53
17 53 26 0 5 3 8 8 7 10 -4 122 54 122 63 0 4 8 6 18 5 9 -2 19 0 22 4 5 8
108 61 112 58 2 -1 22 11 46 25 23 15 42 24 42 20 0 -5 4 -3 8 2 4 6 43 28 87
50 44 21 94 48 110 60 17 11 31 19 32 18 6 -6 93 42 93 50 0 4 5 5 10 2 6 -4
16 -2 23 3 7 5 64 36 127 68 63 33 118 64 122 69 4 6 8 6 8 1 0 -5 7 -3 15 4
8 7 15 9 15 6 0 -4 10 2 22 14 12 11 30 20 39 20 10 0 19 3 21 8 4 9 261 137
270 134 5 -1 7 3 5 10 -1 7 5 12 13 13 15 0 234 109 258 128 7 5 15 7 19 4 3
-4 14 3 24 14 9 11 20 19 24 18 8 -2 78 34 86 44 3 5 9 8 13 8 19 -3 27 0 22
7 -3 5 0 9 7 9 20 0 107 45 107 55 0 5 5 6 12 2 6 -4 17 1 25 11 7 11 13 16
13 12 0 -6 216 102 423 211 31 17 57 28 57 25 0 -3 6 -1 13 5 23 19 149 82
163 82 9 0 12 5 9 10 -3 6 1 10 9 10 9 0 16 4 16 8 0 4 10 8 22 9 11 1 24 7
28 13 4 7 9 11 11 10 8 -4 59 23 59 31 0 5 7 6 15 3 8 -4 15 -2 15 3 0 5 17
15 38 22 20 8 39 17 42 20 10 12 69 41 84 41 9 0 16 4 16 8 0 5 16 14 35 22
19 8 35 17 35 22 0 4 6 8 13 8 23 1 107 47 99 55 -4 5 -1 5 6 1 7 -4 18 -3 25
2 17 14 182 96 183 91 0 -2 8 3 17 11 40 37 47 41 47 29 0 -7 8 -5 20 6 12 11
29 20 38 21 9 2 18 8 20 14 2 5 8 8 12 5 5 -3 18 3 30 15 11 11 22 20 25 20
16 -1 55 13 55 20 0 7 29 18 47 18 3 0 9 4 12 9 3 4 38 24 76 43 39 19 73 38
76 43 3 5 9 8 13 8 10 -2 126 56 121 61 -2 2 5 5 17 5 12 1 24 6 27 11 3 4 22
14 41 22 19 7 42 18 50 25 20 15 73 39 83 37 4 -1 7 3 7 9 0 5 4 8 9 5 5 -4
11 -3 13 2 1 4 86 50 188 101 254 129 354 182 360 189 3 4 10 7 15 8 21 2 55
17 55 23 0 4 23 15 50 26 28 11 50 23 50 26 0 4 17 13 37 20 21 6 44 18 51 26
7 7 19 13 26 13 8 0 19 7 26 15 7 8 16 13 20 10 4 -2 28 9 53 25 25 15 48 26
51 23 3 -4 6 -1 6 5 0 7 3 11 8 10 7 -2 122 52 132 62 3 3 59 32 125 65 66 33
122 63 123 68 2 4 8 5 13 1 5 -3 9 0 9 7 0 7 3 10 6 6 3 -3 23 5 44 18 21 13
41 21 44 18 3 -4 6 -1 6 6 0 7 5 9 10 6 6 -3 10 -2 10 4 0 5 14 12 30 16 17 4
30 10 30 15 0 4 22 16 50 26 27 10 50 21 50 24 0 8 52 34 63 32 5 -2 20 7 34
18 14 11 30 20 35 20 6 0 22 9 38 20 15 11 30 17 34 13 3 -3 6 -1 6 6 0 7 5 9
10 6 6 -3 10 -1 10 5 0 6 5 8 10 5 6 -3 10 -1 10 4 0 6 3 10 8 9 4 -1 25 7 47
19 22 11 44 21 49 21 5 0 12 4 15 9 3 4 42 26 86 48 44 22 82 43 83 48 2 4 8
5 13 1 5 -3 9 0 9 5 0 6 3 10 8 9 10 -2 86 35 90 45 2 4 12 7 22 7 10 0 20 3
22 7 4 10 181 98 191 95 4 -1 7 3 7 8 0 6 7 10 15 10 8 0 15 5 15 11 0 5 5 7
10 4 6 -3 10 -1 10 5 0 6 5 8 10 5 6 -3 10 -1 10 5 0 6 5 8 10 5 6 -3 10 -1
10 5 0 6 5 8 10 5 6 -3 10 -1 10 5 0 6 5 8 10 5 6 -3 10 -1 10 4 0 6 3 10 8 9
4 -1 23 6 42 17 19 11 37 20 40 20 5 1 36 17 146 76 39 21 74 35 78 32 3 -3 8
2 12 11 3 9 10 13 15 10 5 -3 9 -1 9 5 0 5 14 12 30 16 17 4 30 11 30 16 0 6
5 7 10 4 6 -3 10 -1 10 5 0 6 5 8 10 5 6 -3 10 -1 10 5 0 6 5 8 10 5 6 -3 10
-1 10 5 0 6 5 8 10 5 6 -3 10 -1 10 4 0 6 9 11 20 11 11 0 20 3 20 8 0 8 49
32 67 32 7 0 13 5 13 10 0 6 9 10 20 10 11 0 20 4 20 9 0 7 28 19 47 19 3 0 9
4 12 10 3 5 20 15 36 23 l30 14 3 8588 2 8587 -8120 0 -8120 0 0 -8589z"/>
</g>
</svg>
